<svg xmlns="http://www.w3.org/2000/svg" xmlns:xlink="http://www.w3.org/1999/xlink" width="50" zoomAndPan="magnify" viewBox="0 0 37.5 37.499999" height="50" preserveAspectRatio="xMidYMid meet" version="1.0"><defs><clipPath id="190c093b62"><path d="M 0.238281 6 L 36.949219 6 L 36.949219 28 L 0.238281 28 Z M 0.238281 6 " clip-rule="nonzero"/></clipPath><clipPath id="b5b9ac3af6"><path d="M 18.503906 0.765625 L 23.507812 0.765625 L 23.507812 5.769531 L 18.503906 5.769531 Z M 18.503906 0.765625 " clip-rule="nonzero"/></clipPath><clipPath id="85825c44ee"><path d="M 21.007812 0.765625 C 19.625 0.765625 18.503906 1.882812 18.503906 3.265625 C 18.503906 4.648438 19.625 5.769531 21.007812 5.769531 C 22.390625 5.769531 23.507812 4.648438 23.507812 3.265625 C 23.507812 1.882812 22.390625 0.765625 21.007812 0.765625 Z M 21.007812 0.765625 " clip-rule="nonzero"/></clipPath><clipPath id="713bc5b1d2"><path d="M 0.503906 0.765625 L 5.507812 0.765625 L 5.507812 5.769531 L 0.503906 5.769531 Z M 0.503906 0.765625 " clip-rule="nonzero"/></clipPath><clipPath id="c3f79ba1c6"><path d="M 3.007812 0.765625 C 1.625 0.765625 0.503906 1.882812 0.503906 3.265625 C 0.503906 4.648438 1.625 5.769531 3.007812 5.769531 C 4.390625 5.769531 5.507812 4.648438 5.507812 3.265625 C 5.507812 1.882812 4.390625 0.765625 3.007812 0.765625 Z M 3.007812 0.765625 " clip-rule="nonzero"/></clipPath><clipPath id="2167066ec6"><rect x="0" width="6" y="0" height="6"/></clipPath><clipPath id="6445e5a0b8"><rect x="0" width="37" y="0" height="29"/></clipPath></defs><g transform="matrix(1, 0, 0, 1, 0, 4)"><g clip-path="url(#6445e5a0b8)"><g clip-path="url(#190c093b62)"><path fill="#ffffff" d="M 8.507812 20.136719 C 7.792969 21.359375 7.121094 22.503906 6.453125 23.652344 C 5.875 24.640625 5.300781 25.632812 4.71875 26.621094 C 4.011719 27.824219 2.671875 28.214844 1.511719 27.5625 C 0.382812 26.933594 0.00390625 25.53125 0.695312 24.324219 C 2.347656 21.4375 4.023438 18.566406 5.691406 15.691406 C 7.074219 13.304688 8.457031 10.917969 9.84375 8.53125 C 11.128906 6.316406 13.847656 5.789062 15.761719 7.410156 C 16.101562 7.699219 16.390625 8.070312 16.625 8.449219 C 19.867188 13.699219 23.097656 18.953125 26.332031 24.207031 C 27.09375 25.449219 26.726562 26.953125 25.503906 27.621094 C 24.394531 28.226562 23.058594 27.871094 22.359375 26.75 C 21.175781 24.851562 20.015625 22.941406 18.847656 21.035156 C 17.070312 18.140625 15.292969 15.246094 13.511719 12.355469 C 13.449219 12.25 13.371094 12.15625 13.257812 12 C 12.777344 12.816406 12.390625 13.640625 11.851562 14.351562 C 11.230469 15.175781 11.320312 15.820312 11.859375 16.675781 C 13.429688 19.164062 14.890625 21.722656 16.390625 24.25 C 17.238281 25.675781 16.605469 27.398438 15.082031 27.800781 C 14 28.089844 13.011719 27.660156 12.386719 26.613281 C 11.203125 24.632812 10.023438 22.652344 8.84375 20.667969 C 8.753906 20.515625 8.652344 20.363281 8.507812 20.136719 Z M 35.433594 27.613281 C 36.660156 26.957031 37.011719 25.488281 36.246094 24.246094 C 32.820312 18.675781 29.386719 13.113281 25.949219 7.550781 C 25.242188 6.40625 23.816406 6.066406 22.691406 6.753906 C 21.597656 7.417969 21.265625 8.878906 21.976562 10.035156 C 25.398438 15.605469 28.828125 21.171875 32.257812 26.738281 C 32.722656 27.492188 33.394531 27.902344 34.320312 27.96875 C 34.695312 27.855469 35.097656 27.792969 35.433594 27.613281 Z M 35.433594 27.613281 " fill-opacity="1" fill-rule="nonzero"/></g><g clip-path="url(#b5b9ac3af6)"><g clip-path="url(#85825c44ee)"><g transform="matrix(1, 0, 0, 1, 18, 0)"><g clip-path="url(#2167066ec6)"><g clip-path="url(#713bc5b1d2)"><g clip-path="url(#c3f79ba1c6)"><path fill="#ffffff" d="M 0.503906 0.765625 L 5.507812 0.765625 L 5.507812 5.769531 L 0.503906 5.769531 Z M 0.503906 0.765625 " fill-opacity="1" fill-rule="nonzero"/></g></g></g></g></g></g></g></g></svg>