<svg xmlns="http://www.w3.org/2000/svg" xmlns:xlink="http://www.w3.org/1999/xlink" width="500" zoomAndPan="magnify" viewBox="0 0 375 374.999991" height="500" preserveAspectRatio="xMidYMid meet" version="1.0"><defs><clipPath id="697266cb7c"><path d="M 0.398438 54 L 347 54 L 347 260 L 0.398438 260 Z M 0.398438 54 " clip-rule="nonzero"/></clipPath><clipPath id="e9b81e77e5"><path d="M 173.5 0.640625 L 221.179688 0.640625 L 221.179688 48.320312 L 173.5 48.320312 Z M 173.5 0.640625 " clip-rule="nonzero"/></clipPath><clipPath id="07a189099f"><path d="M 197.339844 0.640625 C 184.171875 0.640625 173.5 11.316406 173.5 24.480469 C 173.5 37.648438 184.171875 48.320312 197.339844 48.320312 C 210.503906 48.320312 221.179688 37.648438 221.179688 24.480469 C 221.179688 11.316406 210.503906 0.640625 197.339844 0.640625 Z M 197.339844 0.640625 " clip-rule="nonzero"/></clipPath><clipPath id="2801f3ddbc"><path d="M 0.5 0.640625 L 48.179688 0.640625 L 48.179688 48.320312 L 0.5 48.320312 Z M 0.5 0.640625 " clip-rule="nonzero"/></clipPath><clipPath id="2bbcc90b25"><path d="M 24.339844 0.640625 C 11.171875 0.640625 0.5 11.316406 0.5 24.480469 C 0.5 37.648438 11.171875 48.320312 24.339844 48.320312 C 37.503906 48.320312 48.179688 37.648438 48.179688 24.480469 C 48.179688 11.316406 37.503906 0.640625 24.339844 0.640625 Z M 24.339844 0.640625 " clip-rule="nonzero"/></clipPath><clipPath id="6a38be6d2e"><rect x="0" width="49" y="0" height="49"/></clipPath><clipPath id="cd179af4d2"><rect x="0" width="348" y="0" height="261"/></clipPath></defs><g transform="matrix(1, 0, 0, 1, 14, 56)"><g clip-path="url(#cd179af4d2)"><g clip-path="url(#697266cb7c)"><path fill="#8e2de2" d="M 78.300781 185.144531 C 71.476562 196.804688 65.09375 207.710938 58.726562 218.625 C 53.21875 228.046875 47.765625 237.511719 42.222656 246.90625 C 35.460938 258.355469 22.710938 262.074219 11.660156 255.894531 C 0.90625 249.886719 -2.691406 236.527344 3.890625 225.019531 C 19.613281 197.539062 35.597656 170.199219 51.472656 142.808594 C 64.644531 120.082031 77.816406 97.347656 91.007812 74.621094 C 103.25 53.523438 129.152344 48.515625 147.394531 63.953125 C 150.617188 66.6875 153.367188 70.230469 155.605469 73.847656 C 186.5 123.832031 217.273438 173.890625 248.0625 223.9375 C 255.324219 235.746094 251.804688 250.082031 240.179688 256.433594 C 229.613281 262.199219 216.898438 258.832031 210.21875 248.121094 C 198.945312 230.0625 187.902344 211.855469 176.765625 193.714844 C 159.839844 166.152344 142.90625 138.589844 125.964844 111.046875 C 125.355469 110.050781 124.613281 109.128906 123.558594 107.652344 C 118.980469 115.441406 115.265625 123.277344 110.152344 130.066406 C 104.242188 137.917969 105.101562 144.054688 110.234375 152.183594 C 125.179688 175.878906 139.085938 200.242188 153.394531 224.328125 C 161.460938 237.914062 155.410156 254.308594 140.902344 258.152344 C 130.59375 260.882812 121.183594 256.800781 115.230469 246.832031 C 103.957031 227.984375 92.753906 209.097656 81.515625 190.230469 C 80.636719 188.761719 79.679688 187.328125 78.300781 185.144531 Z M 334.75 256.371094 C 346.417969 250.117188 349.785156 236.140625 342.496094 224.292969 C 309.863281 171.257812 277.164062 118.265625 244.433594 65.289062 C 237.699219 54.382812 224.105469 51.148438 213.371094 57.6875 C 202.964844 64.027344 199.804688 77.933594 206.566406 88.9375 C 239.160156 141.992188 271.835938 195.003906 304.511719 248.015625 C 308.941406 255.207031 315.34375 259.101562 324.136719 259.761719 C 327.703125 258.671875 331.535156 258.089844 334.75 256.371094 Z M 334.75 256.371094 " fill-opacity="1" fill-rule="nonzero"/></g><g clip-path="url(#e9b81e77e5)"><g clip-path="url(#07a189099f)"><g transform="matrix(1, 0, 0, 1, 173, 0)"><g clip-path="url(#6a38be6d2e)"><g clip-path="url(#2801f3ddbc)"><g clip-path="url(#2bbcc90b25)"><path fill="#8e2de2" d="M 0.5 0.640625 L 48.179688 0.640625 L 48.179688 48.320312 L 0.5 48.320312 Z M 0.5 0.640625 " fill-opacity="1" fill-rule="nonzero"/></g></g></g></g></g></g></g></g></svg>